# xmcd
#
# Track frame offsets: 
#        150
#        10922
#        22640
#        35387
#        46352
#        58430
#        71920
#        83552
#        99830
#        111960
#        125455
#        138060
#        150282
#        164065
#        175865
#        186187
#        204097
#        222762
#        234662
#        246292
#        260567
#
# Disc length: 3680 seconds
#
# Revision: 0
# Processed by: cddbd v1.5.2PL0 Copyright (c) Steve Scherf et al.
# Submitted via: ExactAudioCopy v0.99pb5
#
DISCID=170e5e15
DTITLE=Various Artist - How Blues Can You Get?
DYEAR=1900
DGENRE=
TTITLE0=Elmore James - Madison Blues
TTITLE1=Sonny Boy Williamson - Bring It On Home
TTITLE2=Little Walter - Dead Presidents
TTITLE3=Howlin' Wolf - Little Red Rooster
TTITLE4=Muddy Waters - You Need Love
TTITLE5=John Lee Hooker - One Bourbon, One Scotch, One Beer
TTITLE6=Bo Diddley - Call Me (Bo's Blues)
TTITLE7=Otis And Lucille Spann - My Man
TTITLE8=Chuck Berry - The Things I Used To Do
TTITLE9=Koko Taylor - Wang Dang Doodle
TTITLE10=Howlin'Wolf - Back Door Man
TTITLE11=John Lee Hooker - In The Mood
TTITLE12=Albert King - Calling On My Darling
TTITLE13=Junior Parker - Driving Wheel
TTITLE14=Buddy Guy - First Time I Met The Blues
TTITLE15=Muddy Waters - My Home Is In The Delta
TTITLE16=Bobby Bland - Stormy Monday Blues
TTITLE17=Little Milton - Grits Ain't Groceries
TTITLE18=Etta James - I'd Rather Go Blind
TTITLE19=Otis Rush - So Many Roads, So Many Trains
TTITLE20=Bobby Bland - Drifting Blues
EXTD=
EXTT0=
EXTT1=
EXTT2=
EXTT3=
EXTT4=
EXTT5=
EXTT6=
EXTT7=
EXTT8=
EXTT9=
EXTT10=
EXTT11=
EXTT12=
EXTT13=
EXTT14=
EXTT15=
EXTT16=
EXTT17=
EXTT18=
EXTT19=
EXTT20=
PLAYORDER=
